<svg width="35" height="35" viewBox="0 0 35 35" fill="none" xmlns="http://www.w3.org/2000/svg">
<path fill-rule="evenodd" clip-rule="evenodd" d="M30.9576 17.1986C30.9576 20.8477 29.508 24.3474 26.9277 26.9277C24.3474 29.508 20.8478 30.9576 17.1987 30.9576C13.5496 30.9576 10.05 29.508 7.46966 26.9277C4.88936 24.3474 3.43976 20.8477 3.43976 17.1986C3.43976 13.5495 4.88936 10.0499 7.46966 7.46959C10.05 4.88929 13.5496 3.4397 17.1987 3.4397C20.8478 3.4397 24.3474 4.88929 26.9277 7.46959C29.508 10.0499 30.9576 13.5495 30.9576 17.1986ZM21.4984 12.899C21.4984 14.0393 21.0454 15.1329 20.239 15.9393C19.4327 16.7456 18.339 17.1986 17.1987 17.1986C16.0583 17.1986 14.9647 16.7456 14.1584 15.9393C13.352 15.1329 12.899 14.0393 12.899 12.899C12.899 11.7586 13.352 10.665 14.1584 9.85864C14.9647 9.05229 16.0583 8.5993 17.1987 8.5993C18.339 8.5993 19.4327 9.05229 20.239 9.85864C21.0454 10.665 21.4984 11.7586 21.4984 12.899ZM17.1987 20.6384C15.5999 20.6369 14.0228 21.0075 12.592 21.721C11.1613 22.4344 9.91622 23.471 8.95537 24.7488C10.0015 25.8937 11.2749 26.8078 12.6943 27.4327C14.1137 28.0575 15.6478 28.3794 17.1987 28.3778C18.7495 28.3794 20.2837 28.0575 21.7031 27.4327C23.1225 26.8078 24.3959 25.8937 25.442 24.7488C24.4812 23.471 23.2361 22.4344 21.8053 21.721C20.3746 21.0075 18.7974 20.6369 17.1987 20.6384Z" fill="#4A5565"/>
</svg>
